<?xml version="1.0" encoding="utf-8"?>
<!-- Generator: Adobe Illustrator 22.1.0, SVG Export Plug-In . SVG Version: 6.00 Build 0)  -->
<svg version="1.1" id="Layer_1" xmlns="http://www.w3.org/2000/svg" xmlns:xlink="http://www.w3.org/1999/xlink" x="0px" y="0px"
	 viewBox="0 0 500 500" style="enable-background:new 0 0 500 500;" xml:space="preserve">
<style type="text/css">
	.st0{fill:#1D1D1B;}
	.st1{fill:#FFD500;}
</style>
<g>
	<title>Asset 1</title>
	<g id="Layer_2_2_">
		<g id="Layer_1-2_1_">
			<path class="st0" d="M78.6,49c0,0,0.2,138.6,27.2,222.4c24.4,76,79.2,139.5,145,180.6c65.6-41,118.8-104.5,143.2-180.6
				C420.9,187.6,421.1,49,421.1,49H78.6z"/>
			<path class="st1" d="M250.7,444.7c-66.5-42.5-117.1-106.4-139.5-175.6C87.9,196.6,84.7,80.8,84.3,54h331.1
				c-0.4,26.8-3.5,142.6-26.8,214.9C364.4,341.8,315.7,403.9,250.7,444.7z"/>
			<path class="st0" d="M140.2,248c1.7-1.8,3.5-3.4,5.4-5c14.1-11.4,39.2-34.3,68.3-31.3c15.4,1.3,29.2,9.8,37.3,23
				c-11.9,13.3-19,30.1-20.2,47.9c-0.6,15.6,4.2,111.9,4.2,111.9s0.7,25.5,1.3,40.3c4.6,3.3,9.3,6.5,14.1,9.5
				c3.9-2.5,7.7-5,11.5-7.7l2.2-107c1.2-17.8-1.9-41.5,12.6-56.3c0.9-1,5.4-5,5.4-5s4.4,3.8,5.8,4.6c0.6,0.5,1.5,0.5,2.1,0
				l33.9-29.2c0.6-0.5,0.9-1.3,0.6-2c-1.1-2.6-3-6.2-3-6.2c14-13.9,28.9-26.8,44.5-38.8c1.7-1.1,0.6-3.4-1.4-2.5
				c-7.5,3.7-16.4,2.6-22.7-2.7c-2.1-2.2-3.2-5.4-5.8-3.7c-11.3,7.7-23.5,13.9-36.4,18.4c-5.4-4.7-10-10.3-13.3-16.6
				c-16.4-33.5-8-77,15.5-104.6c6.6-7.8,14.5-14.3,23.3-19.3c1.1-0.6,1.2-2.5-1-2.4c-74.5,4.4-140.8,53.5-170.1,121.6
				c-8.8,19.3-14.3,40-16.1,61.2C137.9,248.2,138.5,249.7,140.2,248z"/>
			<path class="st1" d="M328.1,203.3c2.2-0.6,4.5-0.4,6.5,0.7c1.6,1.6-2.1,6.9-4,10c-4.6,7.8-5,8.5-9.7,15.7
				c-0.2-2.3-0.1-4.6,0.5-6.8c1-3.4,2.6-6.5,4.5-9.4c1.8-2.7,3.7-4.6,3.4-5.8c-0.3-1.2-5.4,0.4-7.5,0.7c-4.3,1.5-9.1,1.4-13.3-0.3
				C308.5,208,322.3,204.4,328.1,203.3z"/>
			<path class="st1" d="M249.8,270.3c2-0.7,11.4-6.7,19.1-5.9c3,0.2,5.9,1.2,8.4,2.7c-6.7-0.2-13.3,1.2-19.2,4.2
				c-4.5,2.2-10.2,6.8-13.3,3.6c-2.1-2.2-2-6.6,0-16.1c1.2-6,3.4-11.7,6.5-16.9c-0.5,7.9-1.6,15.8-3.3,23.5
				C247.4,268.7,247.4,271.1,249.8,270.3z"/>
			<path class="st1" d="M239.1,385.9c-0.2,5.2,1.6,10.2,5,14.1c5.7,6.9,14,15.5,14,15.5c0.5-4.8-1.2-9.6-4.6-13
				C247.6,395.2,239.1,385.9,239.1,385.9z"/>
			<path class="st1" d="M236.9,334.1c0,5.3,2.1,10.4,5.7,14.3c6.2,6.8,16.1,16.2,16.1,16.2c0.3-5-1.6-9.8-5.2-13.2
				C247,344.3,236.9,334.1,236.9,334.1z"/>
			<path class="st1" d="M235.9,282.6c-0.3,5.5,1.7,10.9,5.4,15l18.9,22.6c0.4-5.7-1.6-11.2-5.5-15.4
				C247.9,296.4,235.9,282.6,235.9,282.6z"/>
		</g>
	</g>
</g>
</svg>
